<svg width="44" height="44" viewBox="0 0 44 44" fill="none" xmlns="http://www.w3.org/2000/svg">
<rect width="44" height="44" rx="12" fill="#F5F6F8"/>
<g clip-path="url(#clip0_42_30196)">
<path d="M39.8689 19.337C39.7044 18.8682 39.3985 18.4622 38.9933 18.1748C38.5881 17.8874 38.1037 17.7329 37.6069 17.7327H37.585C37.2622 17.7325 36.9426 17.7977 36.6456 17.9243C36.3487 18.051 36.0804 18.2364 35.8571 18.4696C35.6337 18.2364 35.3654 18.051 35.0685 17.9243C34.7715 17.7977 34.4519 17.7325 34.1291 17.7327H34.1072C33.5333 17.7318 32.9784 17.938 32.5444 18.3134V18.1294C32.5376 18.0407 32.4976 17.9578 32.4325 17.8971C32.3674 17.8365 32.2819 17.8026 32.1929 17.8021H30.5894C30.5427 17.8021 30.4966 17.8113 30.4535 17.8291C30.4105 17.847 30.3714 17.8732 30.3384 17.9062C30.3055 17.9392 30.2794 17.9783 30.2616 18.0214C30.2439 18.0645 30.2348 18.1107 30.2349 18.1573V26.8651C30.2348 26.9118 30.2439 26.9579 30.2616 27.001C30.2794 27.0441 30.3055 27.0833 30.3384 27.1163C30.3714 27.1493 30.4105 27.1755 30.4535 27.1933C30.4966 27.2112 30.5427 27.2204 30.5894 27.2204H32.1929C32.3717 27.2204 32.5187 27.0869 32.5421 26.9142L32.5414 20.6629C32.5414 20.6413 32.5424 20.6205 32.5444 20.6003C32.57 20.3213 32.7744 20.092 33.0972 20.0633H33.3929C33.5163 20.0726 33.6341 20.1183 33.7316 20.1946C33.801 20.251 33.8567 20.3225 33.8943 20.4036C33.932 20.4848 33.9506 20.5735 33.9488 20.6629L33.9548 26.8833C33.9548 27.0801 34.114 27.2393 34.3093 27.2393H35.9129C36.1022 27.2393 36.2561 27.0884 36.2651 26.9006L36.2643 20.6546C36.2623 20.556 36.2852 20.4584 36.3308 20.3709C36.3764 20.2834 36.4433 20.2087 36.5253 20.1538C36.6075 20.101 36.7063 20.0656 36.8202 20.055H37.1159C37.2684 20.0628 37.4119 20.1299 37.5157 20.2419C37.6195 20.3539 37.6755 20.502 37.6718 20.6546L37.6778 26.8667C37.6777 26.9133 37.6868 26.9595 37.7046 27.0025C37.7224 27.0456 37.7484 27.0848 37.7814 27.1178C37.8143 27.1508 37.8534 27.177 37.8965 27.1949C37.9395 27.2127 37.9857 27.2219 38.0323 27.2219H39.6358C39.8312 27.2219 39.9903 27.0635 39.9903 26.8667V20.1855C39.9903 19.7299 39.9391 19.5361 39.8689 19.337Z" fill="#54C1F0"/>
<path d="M29.0145 17.8257H28.0973V16.3353C28.097 16.2878 28.0863 16.2409 28.0659 16.198C28.0455 16.155 28.0159 16.1171 27.9791 16.0869C27.9424 16.0566 27.8995 16.0348 27.8535 16.023C27.8074 16.0112 27.7593 16.0097 27.7126 16.0186C26.6959 16.2976 26.8995 17.7058 25.0433 17.8257H24.8631C24.8369 17.8261 24.8109 17.8291 24.7854 17.8348C24.7069 17.8522 24.6366 17.8966 24.5862 17.9593C24.5358 18.0219 24.5081 18.0998 24.5078 18.1802V19.7838C24.5078 19.8304 24.517 19.8766 24.5349 19.9196C24.5527 19.9627 24.5789 20.0018 24.6119 20.0347C24.6449 20.0676 24.6841 20.0937 24.7272 20.1115C24.7703 20.1293 24.8164 20.1384 24.8631 20.1383H25.8308L25.8293 26.9378C25.8293 27.1317 25.9861 27.2886 26.18 27.2886H27.7654C27.9585 27.2886 28.1154 27.1317 28.1154 26.9378L28.1161 20.1383H29.0145C29.1085 20.1383 29.1986 20.1009 29.2651 20.0344C29.3316 19.968 29.369 19.8778 29.369 19.7838V18.1802C29.369 18.0862 29.3316 17.9961 29.2651 17.9296C29.1986 17.8631 29.1085 17.8257 29.0145 17.8257Z" fill="#54C1F0"/>
<path d="M23.244 17.8261H21.6405C21.5466 17.8263 21.4566 17.8637 21.3903 17.9302C21.324 17.9966 21.2868 18.0867 21.2868 18.1806V21.4963C21.2848 21.5947 21.2444 21.6885 21.1742 21.7575C21.104 21.8266 21.0096 21.8655 20.9111 21.8658H20.2399C20.1402 21.8656 20.0447 21.826 19.9742 21.7557C19.9037 21.6853 19.8639 21.5899 19.8635 21.4902L19.8575 18.1806C19.8575 18.0866 19.8201 17.9964 19.7536 17.9299C19.6871 17.8634 19.597 17.8261 19.503 17.8261H17.8994C17.8054 17.8261 17.7152 17.8634 17.6488 17.9299C17.5823 17.9964 17.5449 18.0866 17.5449 18.1806V21.8146C17.5449 23.1948 18.5292 24.1791 19.9103 24.1791C19.9103 24.1791 20.9466 24.1791 20.9783 24.1852C21.0691 24.1953 21.153 24.2385 21.2141 24.3063C21.2752 24.3742 21.3094 24.4622 21.31 24.5535C21.3107 24.6449 21.2778 24.7333 21.2176 24.8021C21.1575 24.8708 21.0742 24.9151 20.9836 24.9266L20.9564 24.9319L18.6114 24.9402C18.5174 24.9402 18.4272 24.9775 18.3608 25.044C18.2943 25.1105 18.2569 25.2007 18.2569 25.2947V26.8975C18.2569 27.0936 18.4153 27.252 18.6114 27.252H21.2332C22.615 27.252 23.5985 26.2684 23.5985 24.8874V18.1806C23.5985 18.134 23.5894 18.0879 23.5716 18.0449C23.5537 18.0019 23.5276 17.9628 23.4947 17.9299C23.4618 17.897 23.4227 17.8709 23.3797 17.8531C23.3367 17.8352 23.2906 17.8261 23.244 17.8261Z" fill="#233266"/>
<path d="M7.72437 20.7637V21.7533C7.72417 21.8529 7.68455 21.9484 7.61418 22.0189C7.5438 22.0894 7.44838 22.1293 7.34875 22.1297L6.33126 22.1304V20.1475H7.34875C7.3981 20.1474 7.44699 20.157 7.49261 20.1759C7.53823 20.1947 7.57967 20.2224 7.61457 20.2573C7.64947 20.2922 7.67713 20.3336 7.69598 20.3792C7.71482 20.4249 7.72447 20.4737 7.72437 20.5231V20.7637ZM7.86541 17.8251H4.36041C4.31472 17.825 4.26946 17.834 4.22723 17.8514C4.18499 17.8688 4.14662 17.8945 4.11432 17.9268C4.08201 17.9591 4.0564 17.9974 4.03896 18.0397C4.02152 18.0819 4.0126 18.1272 4.0127 18.1728V19.744L4.01345 19.753L4.0127 19.7749V26.886C4.0127 27.079 4.15751 27.2367 4.33702 27.2412H5.97073C6.16608 27.2412 6.32523 27.0828 6.32523 26.8867L6.33126 24.4497H7.86541C9.14915 24.4497 10.0437 23.559 10.0437 22.2699V20.0079C10.0437 18.7189 9.14915 17.8251 7.86541 17.8251Z" fill="#233266"/>
<path d="M14.3777 24.5284V24.7788C14.3762 24.8166 14.3691 24.854 14.3565 24.8897C14.3289 24.9617 14.28 25.0235 14.2162 25.0668C14.1524 25.1101 14.0769 25.1328 13.9998 25.1318H13.3323C13.1241 25.1318 12.9544 24.9734 12.9544 24.7788V24.4764L12.9536 24.4651L12.9544 23.6603V23.4084L12.9551 23.4061C12.9559 23.2123 13.1241 23.0554 13.3323 23.0554H13.9998C14.2087 23.0554 14.3777 23.213 14.3777 23.4084V24.5284ZM14.1227 17.8344H11.8977C11.7008 17.8344 11.5417 17.9838 11.5417 18.1671V18.7908L11.5424 18.8029L11.5417 18.8165V19.671C11.5417 19.8649 11.7106 20.0233 11.9188 20.0233H14.0375C14.1215 20.0347 14.1991 20.0746 14.2572 20.1364C14.3153 20.1982 14.3504 20.2781 14.3565 20.3627V20.5694C14.3377 20.7511 14.2064 20.8839 14.0465 20.899H12.9974C11.602 20.899 10.6079 21.8259 10.6079 23.1278V24.9923C10.6079 26.2866 11.4625 27.2075 12.848 27.2075H15.7557C16.2776 27.2075 16.7008 26.8123 16.7008 26.3258V20.2413C16.7008 18.7659 15.9405 17.8344 14.1227 17.8344Z" fill="#233266"/>
</g>
<defs>
<clipPath id="clip0_42_30196">
<rect width="36" height="11.2995" fill="white" transform="translate(4 16)"/>
</clipPath>
</defs>
</svg>
